# xmcd
#
# Track frame offsets: 
#        150
#        13360
#        31447
#        46548
#        62189
#        81971
#        98953
#        114078
#        134574
#        148488
#
# Disc length: 2144 seconds
#
# Revision: 0
# Processed by: cddbd v1.5.2PL0 Copyright (c) Steve Scherf et al.
# Submitted via: ExactAudioCopyFreeDBPlugin 1.0
#
DISCID=8d085e0a
DTITLE=Linda Ronstadt - Living In The USA
DYEAR=1978
DGENRE=Country
TTITLE0=Back In The U.S.A.
TTITLE1=When I Grow Too Old To Dream
TTITLE2=Just One Look
TTITLE3=Alison
TTITLE4=White Rhythm and Blues
TTITLE5=All That You Dream
TTITLE6=Ooh Baby Baby
TTITLE7=Mohammed's Radio
TTITLE8=Blowing Away
TTITLE9=Love Me Tender
EXTD=
EXTT0=
EXTT1=
EXTT2=
EXTT3=
EXTT4=
EXTT5=
EXTT6=
EXTT7=
EXTT8=
EXTT9=
PLAYORDER=
